<?xml version="1.0" encoding="UTF-8"?>
<svg width="140px" height="40px" viewBox="0 0 140 40" version="1.1" xmlns="http://www.w3.org/2000/svg" xmlns:xlink="http://www.w3.org/1999/xlink">
    <!-- Generator: Sketch 45 (43475) - http://www.bohemiancoding.com/sketch -->
    <title>Finance footer logo_EN@1x</title>
    <desc>Created with Sketch.</desc>
    <defs></defs>
    <g id="FUJICONS" stroke="none" stroke-width="1" fill="none" fill-rule="evenodd">
        <g id="Finance-footer-logo_EN">
            <g id="Group" transform="translate(7.000000, 6.000000)">
                <ellipse id="Oval-2" fill="#432C88" cx="6.12929963" cy="6.10526316" rx="6.12929963" ry="6.10526316"></ellipse>
                <ellipse id="Oval-2-Copy" fill="#432C88" cx="6.12929963" cy="21.8947368" rx="6.12929963" ry="6.10526316"></ellipse>
                <path d="M17.949971,27.3684211 L21.8608869,16.5305263 L24.6304849,16.5305263 L28.5566183,27.3684211 L25.72615,27.3684211 L25.087012,25.4130526 L21.2826191,25.4130526 L20.6586987,27.3684211 L17.949971,27.3684211 Z M21.9065396,23.488 L24.4630916,23.488 L23.6413427,20.8656842 C23.4587319,20.3048421 23.2152507,19.3347368 23.2152507,19.3347368 L23.1848156,19.3347368 C23.1848156,19.3347368 22.9261169,20.3048421 22.743506,20.8656842 L21.9065396,23.488 Z M29.4189474,27.3684211 L31.8994115,27.3684211 L31.8994115,23.0787368 C31.8994115,22.1237895 32.4472441,21.4416842 33.268993,21.4416842 C34.0755243,21.4416842 34.4863987,22.0025263 34.4863987,22.8210526 L34.4863987,27.3684211 L36.9668628,27.3684211 L36.9668628,22.3208421 C36.9668628,20.5928421 35.9625031,19.3802105 34.2581351,19.3802105 C33.1776875,19.3802105 32.4320265,19.8349474 31.8537588,20.6686316 L31.8081061,20.6686316 L31.8081061,19.6075789 L29.4189474,19.6075789 L29.4189474,27.3684211 Z M46.0568256,25.4433684 C47.8220639,25.4433684 48.6894654,23.9427368 48.6894654,21.9722105 C48.6894654,20.0016842 47.8220639,18.4858947 46.0568256,18.4858947 C44.3068048,18.4858947 43.4089681,20.0016842 43.4089681,21.9722105 C43.4089681,23.9427368 44.3068048,25.4433684 46.0568256,25.4433684 Z M46.041608,27.6261053 C42.7546125,27.6261053 40.6698053,25.216 40.6698053,21.9722105 C40.6698053,18.7284211 42.7546125,16.3183158 46.041608,16.3183158 C49.343821,16.3183158 51.4286283,18.7284211 51.4286283,21.9722105 C51.4286283,25.216 49.343821,27.6261053 46.041608,27.6261053 Z M54.8018567,27.5654737 C53.2496644,27.5654737 52.1387816,26.7317895 52.1387816,25.2008421 C52.1387816,23.488 53.5083631,22.9726316 55.1214257,22.7604211 C56.5823125,22.5785263 57.0997099,22.4269474 57.0997099,21.8964211 C57.0997099,21.3962105 56.7801409,21.0627368 56.0344799,21.0627368 C55.2431662,21.0627368 54.8475094,21.4113684 54.7714215,22.0631579 L52.4887858,22.0631579 C52.5496561,20.6231579 53.6605388,19.3953684 56.0192624,19.3953684 C57.1910154,19.3953684 57.9823291,19.6075789 58.5453792,20.032 C59.2149524,20.5170526 59.5345214,21.2749474 59.5345214,22.2450526 L59.5345214,26.1557895 C59.5345214,26.7772632 59.5953917,27.1258947 59.8084377,27.2623158 L59.8084377,27.3684211 L57.4040614,27.3684211 C57.2823208,27.2016842 57.2062329,26.8985263 57.1453627,26.5044211 L57.1149275,26.5044211 C56.6584004,27.1562105 55.9736097,27.5654737 54.8018567,27.5654737 Z M55.5931704,25.9890526 C56.5214422,25.9890526 57.1605802,25.4282105 57.1605802,24.5945263 L57.1605802,23.6698947 C56.8410112,23.8366316 56.3844841,23.9578947 55.8823042,24.0791579 C54.9235972,24.2913684 54.5279404,24.5338947 54.5279404,25.1250526 C54.5279404,25.7465263 54.9844675,25.9890526 55.5931704,25.9890526 Z M63.927327,27.4593684 C64.5969002,27.4593684 65.0686449,27.3987368 65.2816909,27.3381053 L65.2816909,25.5343158 C65.1903855,25.5343158 64.9469043,25.5494737 64.7338583,25.5494737 C64.2012433,25.5494737 63.8664567,25.3978947 63.8664567,24.7915789 L63.8664567,21.1536842 L65.2816909,21.1536842 L65.2816909,19.6075789 L63.8664567,19.6075789 L63.8664567,17.152 L61.4468629,17.152 L61.4468629,19.6075789 L60.412068,19.6075789 L60.412068,21.1536842 L61.4468629,21.1536842 L61.4468629,25.3221053 C61.4468629,26.9894737 62.4816577,27.4593684 63.927327,27.4593684 Z M66.4331538,27.3684211 L68.913618,27.3684211 L68.913618,23.0787368 C68.913618,22.1237895 69.4614505,21.4416842 70.2831994,21.4416842 C71.0897307,21.4416842 71.5006051,22.0025263 71.5006051,22.8210526 L71.5006051,27.3684211 L73.9810693,27.3684211 L73.9810693,22.3208421 C73.9810693,20.5928421 72.9767096,19.3802105 71.2723415,19.3802105 C70.191894,19.3802105 69.5223208,19.8197895 68.9592707,20.5625263 L68.913618,20.5625263 L68.913618,16.5305263 L66.4331538,16.5305263 L66.4331538,27.3684211 Z M82.7362454,27.6109474 C81.7014506,27.6109474 80.8644841,27.1865263 80.3775218,26.3831579 L80.3470867,26.3831579 L80.3470867,27.3684211 L77.9731455,27.3684211 L77.9731455,16.5305263 L80.4536097,16.5305263 L80.4536097,20.4867368 L80.4992624,20.4867368 C80.9862247,19.8197895 81.6557978,19.3802105 82.7210278,19.3802105 C84.7449649,19.3802105 86.053676,21.1536842 86.053676,23.488 C86.053676,26.0648421 84.7449649,27.6109474 82.7362454,27.6109474 Z M82.0362371,25.6555789 C83.0101617,25.6555789 83.5427767,24.8218947 83.5427767,23.4728421 C83.5427767,22.1389474 83.0101617,21.2597895 82.005802,21.2597895 C80.9101368,21.2597895 80.3775218,22.2147368 80.3775218,23.488 C80.3775218,24.7764211 81.0166598,25.6555789 82.0362371,25.6555789 Z M87.1442686,27.3684211 L89.6247328,27.3684211 L89.6247328,23.8821053 C89.6247328,22.1995789 90.5986574,21.4568421 92.1204145,21.6690526 L92.1812848,21.6690526 L92.1812848,19.5469474 C92.0747618,19.5014737 91.9225861,19.4863158 91.6943225,19.4863158 C90.7508331,19.4863158 90.1116951,19.8955789 89.5638625,20.8202105 L89.5182098,20.8202105 L89.5182098,19.6075789 L87.1442686,19.6075789 L87.1442686,27.3684211 Z M95.2958144,27.5654737 C93.7436221,27.5654737 92.6327394,26.7317895 92.6327394,25.2008421 C92.6327394,23.488 94.0023209,22.9726316 95.6153834,22.7604211 C97.0762703,22.5785263 97.5936677,22.4269474 97.5936677,21.8964211 C97.5936677,21.3962105 97.2740987,21.0627368 96.5284377,21.0627368 C95.737124,21.0627368 95.3414672,21.4113684 95.2653793,22.0631579 L92.9827436,22.0631579 C93.0436139,20.6231579 94.1544966,19.3953684 96.5132202,19.3953684 C97.6849732,19.3953684 98.4762869,19.6075789 99.039337,20.032 C99.7089102,20.5170526 100.028479,21.2749474 100.028479,22.2450526 L100.028479,26.1557895 C100.028479,26.7772632 100.089349,27.1258947 100.302395,27.2623158 L100.302395,27.3684211 L97.8980192,27.3684211 C97.7762786,27.2016842 97.7001907,26.8985263 97.6393204,26.5044211 L97.6088853,26.5044211 C97.1523582,27.1562105 96.4675674,27.5654737 95.2958144,27.5654737 Z M96.0871282,25.9890526 C97.0154,25.9890526 97.654538,25.4282105 97.654538,24.5945263 L97.654538,23.6698947 C97.334969,23.8366316 96.8784419,23.9578947 96.376262,24.0791579 C95.417555,24.2913684 95.0218982,24.5338947 95.0218982,25.1250526 C95.0218982,25.7465263 95.4784253,25.9890526 96.0871282,25.9890526 Z M101.484294,27.3684211 L103.964758,27.3684211 L103.964758,23.0787368 C103.964758,22.1237895 104.51259,21.4416842 105.334339,21.4416842 C106.14087,21.4416842 106.551745,22.0025263 106.551745,22.8210526 L106.551745,27.3684211 L109.032209,27.3684211 L109.032209,22.3208421 C109.032209,20.5928421 108.027849,19.3802105 106.323481,19.3802105 C105.243034,19.3802105 104.497373,19.8349474 103.919105,20.6686316 L103.873452,20.6686316 L103.873452,19.6075789 L101.484294,19.6075789 L101.484294,27.3684211 Z M113.470667,27.6109474 C111.477165,27.6109474 110.061931,26.08 110.061931,23.488 C110.061931,21.0627368 111.461948,19.3802105 113.470667,19.3802105 C114.566332,19.3802105 115.190253,19.8349474 115.64678,20.4867368 L115.692433,20.4867368 L115.692433,16.5305263 L118.172897,16.5305263 L118.172897,27.3684211 L115.798956,27.3684211 L115.798956,26.3225263 L115.768521,26.3225263 C115.296776,27.1258947 114.490245,27.6109474 113.470667,27.6109474 Z M114.109805,25.6555789 C115.1446,25.6555789 115.753303,24.7612632 115.753303,23.488 C115.753303,22.1844211 115.220688,21.2446316 114.14024,21.2446316 C113.151098,21.2446316 112.572831,22.1541053 112.572831,23.4576842 C112.572831,24.8067368 113.151098,25.6555789 114.109805,25.6555789 Z" id="An-Oath-brand" fill="#000000"></path>
            </g>
            <path d="M28.645,17 L28.645,13.04 L25.015,6.275 L27.91,6.275 L29.29,9.05 C29.65,9.785 29.995,10.685 29.995,10.685 L30.025,10.685 C30.025,10.685 30.4,9.785 30.76,9.05 L32.125,6.275 L34.93,6.275 L31.3,13.04 L31.3,17 L28.645,17 Z M35.935,17.195 C34.405,17.195 33.31,16.37 33.31,14.855 C33.31,13.16 34.66,12.65 36.25,12.44 C37.69,12.26 38.2,12.11 38.2,11.585 C38.2,11.09 37.885,10.76 37.15,10.76 C36.37,10.76 35.98,11.105 35.905,11.75 L33.655,11.75 C33.715,10.325 34.81,9.11 37.135,9.11 C38.29,9.11 39.07,9.32 39.625,9.74 C40.285,10.22 40.6,10.97 40.6,11.93 L40.6,15.8 C40.6,16.415 40.66,16.76 40.87,16.895 L40.87,17 L38.5,17 C38.38,16.835 38.305,16.535 38.245,16.145 L38.215,16.145 C37.765,16.79 37.09,17.195 35.935,17.195 Z M36.715,15.635 C37.63,15.635 38.26,15.08 38.26,14.255 L38.26,13.34 C37.945,13.505 37.495,13.625 37,13.745 C36.055,13.955 35.665,14.195 35.665,14.78 C35.665,15.395 36.115,15.635 36.715,15.635 Z M41.725,17 L44.17,17 L44.17,12.755 C44.17,11.81 44.71,11.135 45.52,11.135 C46.315,11.135 46.72,11.69 46.72,12.5 L46.72,17 L49.165,17 L49.165,12.005 C49.165,10.295 48.175,9.095 46.495,9.095 C45.43,9.095 44.77,9.53 44.215,10.265 L44.17,10.265 L44.17,6.275 L41.725,6.275 L41.725,17 Z M53.965,15.5 C55.03,15.5 55.6,14.57 55.6,13.175 C55.6,11.78 55.03,10.835 53.965,10.835 C52.9,10.835 52.345,11.78 52.345,13.175 C52.345,14.57 52.9,15.5 53.965,15.5 Z M53.98,17.24 C51.52,17.24 49.87,15.485 49.87,13.175 C49.87,10.865 51.52,9.11 53.98,9.11 C56.455,9.11 58.075,10.865 58.075,13.175 C58.075,15.485 56.455,17.24 53.98,17.24 Z M62.59,15.5 C63.655,15.5 64.225,14.57 64.225,13.175 C64.225,11.78 63.655,10.835 62.59,10.835 C61.525,10.835 60.97,11.78 60.97,13.175 C60.97,14.57 61.525,15.5 62.59,15.5 Z M62.605,17.24 C60.145,17.24 58.495,15.485 58.495,13.175 C58.495,10.865 60.145,9.11 62.605,9.11 C65.08,9.11 66.7,10.865 66.7,13.175 C66.7,15.485 65.08,17.24 62.605,17.24 Z M69.88,17 L72.535,17 L72.535,12.83 L76.99,12.83 L76.99,10.685 L72.535,10.685 L72.535,8.51 L77.86,8.51 L77.86,6.275 L69.88,6.275 L69.88,17 Z M78.7,17 L81.145,17 L81.145,9.32 L78.7,9.32 L78.7,17 Z M78.7,8.255 L81.145,8.255 L81.145,6.275 L78.7,6.275 L78.7,8.255 Z M82.255,17 L84.7,17 L84.7,12.755 C84.7,11.81 85.24,11.135 86.05,11.135 C86.845,11.135 87.25,11.69 87.25,12.5 L87.25,17 L89.695,17 L89.695,12.005 C89.695,10.295 88.705,9.095 87.025,9.095 C85.96,9.095 85.225,9.545 84.655,10.37 L84.61,10.37 L84.61,9.32 L82.255,9.32 L82.255,17 Z M93.01,17.195 C91.48,17.195 90.385,16.37 90.385,14.855 C90.385,13.16 91.735,12.65 93.325,12.44 C94.765,12.26 95.275,12.11 95.275,11.585 C95.275,11.09 94.96,10.76 94.225,10.76 C93.445,10.76 93.055,11.105 92.98,11.75 L90.73,11.75 C90.79,10.325 91.885,9.11 94.21,9.11 C95.365,9.11 96.145,9.32 96.7,9.74 C97.36,10.22 97.675,10.97 97.675,11.93 L97.675,15.8 C97.675,16.415 97.735,16.76 97.945,16.895 L97.945,17 L95.575,17 C95.455,16.835 95.38,16.535 95.32,16.145 L95.29,16.145 C94.84,16.79 94.165,17.195 93.01,17.195 Z M93.79,15.635 C94.705,15.635 95.335,15.08 95.335,14.255 L95.335,13.34 C95.02,13.505 94.57,13.625 94.075,13.745 C93.13,13.955 92.74,14.195 92.74,14.78 C92.74,15.395 93.19,15.635 93.79,15.635 Z M98.8,17 L101.245,17 L101.245,12.755 C101.245,11.81 101.785,11.135 102.595,11.135 C103.39,11.135 103.795,11.69 103.795,12.5 L103.795,17 L106.24,17 L106.24,12.005 C106.24,10.295 105.25,9.095 103.57,9.095 C102.505,9.095 101.77,9.545 101.2,10.37 L101.155,10.37 L101.155,9.32 L98.8,9.32 L98.8,17 Z M111.025,17.24 C113.2,17.24 114.61,15.86 114.67,14.09 L112.33,14.09 C112.225,14.96 111.76,15.41 110.995,15.41 C109.945,15.41 109.42,14.54 109.42,13.175 C109.42,11.78 109.945,10.91 110.995,10.91 C111.685,10.91 112.105,11.36 112.255,12.05 L114.61,12.05 C114.385,10.325 113.05,9.11 110.965,9.11 C108.535,9.11 106.945,10.865 106.945,13.175 C106.945,15.485 108.55,17.24 111.025,17.24 Z M119.14,17.225 C116.605,17.225 115.045,15.47 115.045,13.145 C115.045,10.85 116.65,9.095 118.99,9.095 C120.085,9.095 120.955,9.455 121.615,10.055 C122.53,10.895 122.98,12.23 122.965,13.79 L117.445,13.79 C117.595,14.825 118.165,15.47 119.17,15.47 C119.815,15.47 120.235,15.185 120.445,14.705 L122.83,14.705 C122.665,15.395 122.215,16.055 121.54,16.52 C120.895,16.97 120.115,17.225 119.14,17.225 Z M117.46,12.335 L120.49,12.335 C120.4,11.42 119.83,10.835 119.035,10.835 C118.105,10.835 117.625,11.42 117.46,12.335 Z" id="Yahoo-Finance" fill="#000000"></path>
        </g>
    </g>
</svg>